<?xml version="1.0" encoding="utf-8"?>
<!-- Generator: Adobe Illustrator 16.0.0, SVG Export Plug-In . SVG Version: 6.00 Build 0)  -->
<!DOCTYPE svg PUBLIC "-//W3C//DTD SVG 1.1//EN" "http://www.w3.org/Graphics/SVG/1.1/DTD/svg11.dtd">
<svg version="1.1" xmlns="http://www.w3.org/2000/svg" xmlns:xlink="http://www.w3.org/1999/xlink" x="0px" y="0px" width="675px"
	 height="430px" viewBox="0 0 675 430" enable-background="new 0 0 675 430" xml:space="preserve">
<g id="rocket-way">
	
		<linearGradient id="SVGID_1_" gradientUnits="userSpaceOnUse" x1="425.6099" y1="250.6016" x2="590.2651" y2="533.9055" gradientTransform="matrix(-0.2809 -1.0769 -1.7328 0.4247 1171.9335 628.0587)">
		<stop  offset="0" style="stop-color:#FFFFFF"/>
		<stop  offset="1" style="stop-color:#CED1D2"/>
	</linearGradient>
	<path fill="url(#SVGID_1_)" d="M601.966,117.286c-0.306,7.949-1.002,16.205-1.823,24.422c-0.824,8.232-1.818,16.502-2.937,24.783
		c-2.234,16.568-4.994,33.191-8.289,49.831c-3.306,16.64-7.141,33.301-11.733,49.946c-4.597,16.639-9.915,33.273-16.429,49.784
		c-6.549,16.486-14.183,32.938-24.348,48.677c-2.501,3.946-5.287,7.791-8.15,11.596c-2.968,3.753-6.032,7.475-9.441,10.976
		c-3.41,3.486-7.018,6.853-10.942,9.857c-3.938,2.979-8.136,5.629-12.51,7.706c-4.379,2.081-8.902,3.572-13.572,4.416
		c-2.331,0.446-4.714,0.673-7.123,0.8c-1.217,0.006-2.392,0.082-3.662,0.063l-3.901-0.151c-10.256-0.653-19.278-3.286-26.706-7.636
		c-7.442-4.33-13.378-10.148-18.187-16.617c-4.862-6.455-8.714-13.53-12.169-20.798c-6.847-14.583-12.089-29.982-18.344-45.204
		c-6.264-15.213-13.398-30.416-24.265-44.363c-2.714-3.483-5.736-6.848-8.957-10.119c-3.303-3.24-6.868-6.354-10.758-9.295
		c-3.96-2.897-8.184-5.646-12.8-8.128c-4.666-2.437-9.586-4.691-14.903-6.582c-10.626-3.771-22.477-6.345-34.982-7.501
		c-6.212-0.668-12.631-0.854-19.042-0.961c-6.429,0.037-12.883,0.145-19.42,0.619c-13.044,0.812-26.272,2.695-39.309,5.453
		c-6.509,1.441-12.983,3.034-19.35,4.916c-6.354,1.897-12.654,3.93-18.779,6.248c-24.605,9.168-46.826,21.447-66.305,35.056
		c-19.501,13.648-36.442,28.641-51.346,44.174c-7.451,7.775-14.382,15.705-20.808,23.746c-6.4,8.043-12.414,16.184-17.565,24.451
		c5.515-8.209,11.872-16.26,18.596-24.198c6.749-7.931,13.985-15.73,21.711-23.352c15.454-15.226,32.841-29.802,52.504-42.882
		c19.636-13.049,41.697-24.583,65.553-32.927c5.94-2.115,12.019-3.941,18.121-5.635c6.114-1.679,12.304-3.068,18.5-4.319
		c12.417-2.368,24.921-3.897,37.219-4.409c6.16-0.324,12.239-0.291,18.281-0.202c5.952,0.233,11.877,0.528,17.534,1.276
		c11.412,1.316,21.976,3.914,31.381,7.556c4.703,1.826,9.033,3.985,13.139,6.302c4.059,2.359,7.767,4.971,11.249,7.723
		c3.413,2.795,6.545,5.765,9.447,8.856c2.827,3.134,5.481,6.356,7.862,9.717c9.539,13.443,15.709,28.352,21.094,43.552
		c5.397,15.22,9.836,30.844,16.155,46.258c3.21,7.694,6.873,15.353,11.894,22.712c4.98,7.342,11.419,14.454,20.66,20.296
		c4.618,2.904,9.982,5.442,16.036,7.362c6.043,1.928,12.758,3.216,19.743,3.831l5.283,0.324c1.819,0.073,3.808,0.033,5.711,0.038
		c3.893-0.109,7.913-0.419,11.969-1.089c8.11-1.274,16.169-3.785,23.227-6.966c7.099-3.185,13.268-6.952,18.717-10.874
		c5.423-3.943,10.065-8.063,14.367-12.225c4.283-4.167,7.993-8.4,11.563-12.644c3.424-4.249,6.712-8.515,9.638-12.793
		c11.88-17.119,20.609-34.318,28.232-51.462c7.563-17.15,13.824-34.267,19.339-51.346c5.506-17.08,10.218-34.12,14.392-51.128
		c4.16-17.011,7.772-33.983,10.858-50.938c1.541-8.477,2.962-16.951,4.213-25.432c1.248-8.494,2.368-16.935,3.119-25.594
		L601.966,117.286z"/>
</g>
<g id="rocket">
	<g>
		<g>
			<path fill="#1D304F" stroke="#FFFFFF" stroke-miterlimit="10" d="M606.065,134.369c5.379,2.29,12.803,4.266,21.608,3.503
				c7.422-0.644,13.515-6.147,15.108-13.423l2.534-11.577c0,0-28.373,7.153-45.096-8.221l-2.252,15.138
				C597.056,125.921,600.36,131.938,606.065,134.369z"/>
			<path id="rocket-body" fill="#BCBEC0" d="M613.197,28.121c-7.806,14.536-15.574,36.753-20.936,70.746
				c-0.38,2.417,0.092,4.896,1.36,6.989c3.188,5.267,10.755,14.702,25.072,17.331c13.885,2.55,26.119-2.081,32.396-5.215
				c2.838-1.416,4.846-4.074,5.483-7.177c2.567-12.469,8.749-47.665,3.555-76.125C644.248,39.789,626.041,38.291,613.197,28.121z"/>
			<path id="rocket-shadow" fill="#E6E7E8" d="M618.694,123.187c5.366,0.985,10.487,0.898,15.113,0.238
				c7.339-1.045,13.433-3.529,17.283-5.453c2.838-1.416,4.846-4.074,5.483-7.177c2.567-12.469,8.749-47.665,3.555-76.125
				c-5.104,1.645-10.45,2.607-15.781,2.817c-3.421,0.134-6.836-0.04-10.177-0.544L618.694,123.187z"/>
			
				<linearGradient id="SVGID_2_" gradientUnits="userSpaceOnUse" x1="966.7261" y1="-982.6416" x2="970.8365" y2="-1021.8484" gradientTransform="matrix(0.3397 -0.9405 0.9405 0.3397 1258.7197 1275.1539)">
				<stop  offset="0" style="stop-color:#BC1E2D"/>
				<stop  offset="1" style="stop-color:#ED4136"/>
			</linearGradient>
			<path fill="url(#SVGID_2_)" d="M641.879,0.678c0,0-14.401,0.851-28.682,27.443c12.843,10.17,31.05,11.668,46.931,6.549
				C657.527,20.416,652.075,7.848,641.879,0.678z"/>
			
				<linearGradient id="SVGID_3_" gradientUnits="userSpaceOnUse" x1="904.0503" y1="-1023.6475" x2="903.1017" y2="-1038.8245" gradientTransform="matrix(0.3397 -0.9405 0.9405 0.3397 1258.7197 1275.1539)">
				<stop  offset="0" style="stop-color:#BC1E2D"/>
				<stop  offset="1" style="stop-color:#ED4136"/>
			</linearGradient>
			<path fill="url(#SVGID_3_)" d="M603.948,54.923c0.473-2.267-2.485-3.576-3.838-1.695c-9.09,12.629-25.258,36.036-22.478,39.054
				c1.95,2.116,6.356,3.764,10.214,4.871c3.707,1.064,7.536-1.259,8.326-5.033L603.948,54.923z"/>
			
				<linearGradient id="SVGID_4_" gradientUnits="userSpaceOnUse" x1="917.2437" y1="-960.5278" x2="919.7728" y2="-943.1401" gradientTransform="matrix(0.3397 -0.9405 0.9405 0.3397 1258.7197 1275.1539)">
				<stop  offset="0" style="stop-color:#BC1E2D"/>
				<stop  offset="1" style="stop-color:#ED4136"/>
			</linearGradient>
			<path fill="url(#SVGID_4_)" d="M664.118,62.838c-0.575-2.243-3.809-2.112-4.191,0.172c-2.584,15.346-6.76,43.484-2.935,44.965
				c2.687,1.04,7.366,0.571,11.318-0.138c3.795-0.68,6.204-4.454,5.246-8.191L664.118,62.838z"/>
			
				<linearGradient id="SVGID_5_" gradientUnits="userSpaceOnUse" x1="881.0767" y1="-996.9512" x2="931.8257" y2="-996.9512" gradientTransform="matrix(0.3397 -0.9405 0.9405 0.3397 1258.7197 1275.1539)">
				<stop  offset="0" style="stop-color:#BC1E2D"/>
				<stop  offset="1" style="stop-color:#ED4136"/>
			</linearGradient>
			<path fill="url(#SVGID_5_)" d="M633.828,60.545c0.038-2.835-3.841-3.683-4.988-1.089c-7.127,16.11-18.451,43.006-16.902,44.688
				c2.548,2.771,17.329,5.252,19.539,2.859C633.017,105.331,633.609,77.346,633.828,60.545z"/>
		</g>
		<path fill="#FFFFFF" d="M616.608,26.142c1.65-3.586,7.075-13.691,18.458-20.681c1.592-0.978,3.501,0.683,2.764,2.401
			l-10.05,23.455c-0.381,0.888-1.354,1.355-2.287,1.094c-2.043-0.575-5.593-1.8-8.305-3.933
			C616.479,27.92,616.231,26.961,616.608,26.142z"/>
		<path fill="#FFFFFF" d="M579.639,90.024c1.564-3.504,8.047-17.271,19.817-32.654c0.231-0.304,0.637-0.423,0.996-0.295l0,0
			c0.512,0.186,0.735,0.785,0.466,1.256c-2.477,4.334-13.021,23.314-14.139,34.118c-0.057,0.566-0.628,0.923-1.163,0.728
			l-5.474-1.977C579.664,91.025,579.431,90.491,579.639,90.024z"/>
		<path fill="#FFFFFF" d="M621.581,103.091c0,0,7.692-40.364,9.078-40.48c1.388-0.116-6.401,41.445-6.401,41.445
			S621.492,104.736,621.581,103.091z"/>
		<path fill="#FFFFFF" d="M604.487,119.958c-1.695-1.125-3.908,0.213-3.705,2.237c0.309,3.092,1.54,6.956,5.364,9.483
			c5.41,3.571,12.299,3.285,15.456,2.909c1.019-0.124,1.849-0.873,2.061-1.876l0.982-4.625c0.319-1.504-0.842-2.904-2.378-2.883
			C618.432,125.269,611.492,124.593,604.487,119.958z"/>
	</g>
</g>
</svg>
