<?xml version="1.0" encoding="utf-8"?>
<!-- Generator: Adobe Illustrator 16.0.0, SVG Export Plug-In . SVG Version: 6.00 Build 0)  -->
<!DOCTYPE svg PUBLIC "-//W3C//DTD SVG 1.1//EN" "http://www.w3.org/Graphics/SVG/1.1/DTD/svg11.dtd">
<svg version="1.1" id="Слой_1" xmlns="http://www.w3.org/2000/svg" xmlns:xlink="http://www.w3.org/1999/xlink" x="0px" y="0px"
	 width="100px" height="190px" viewBox="0 0 100 190" enable-background="new 0 0 100 190" xml:space="preserve">
<g>
	<path fill="#D53D33" d="M72.037,66.863l6.674,22.807c0.154,0.523,0.693,0.821,1.212,0.682c6.722-1.835,13.583,1.944,15.615,8.612
		c0.058,0.187,0.165,0.343,0.31,0.457c0.24,0.215,0.586,0.302,0.918,0.206l0.012-0.004c0.525-0.152,0.814-0.702,0.664-1.226
		l-6.629-22.66c-2.251-7.688-10.361-12.215-18.078-10.112c-0.015,0.007-0.015,0.007-0.023,0.007
		c-0.248,0.071-0.455,0.245-0.584,0.471C72,66.334,71.962,66.606,72.037,66.863z"/>
	<path fill="#C52E25" d="M72.206,67.44l6.505,22.229c0.154,0.523,0.693,0.821,1.212,0.682c6.722-1.835,13.583,1.944,15.615,8.612
		c0.058,0.187,0.165,0.343,0.31,0.457l-6.344-21.688C87.338,70.318,79.691,65.831,72.206,67.44z"/>
</g>
<g>
	<path fill="#D53D33" d="M29.443,66.863L22.77,89.67c-0.154,0.523-0.693,0.821-1.212,0.682c-6.722-1.835-13.583,1.944-15.615,8.612
		c-0.058,0.187-0.166,0.343-0.31,0.457c-0.24,0.215-0.585,0.302-0.918,0.206l-0.011-0.004c-0.525-0.152-0.815-0.702-0.664-1.226
		l6.629-22.66c2.251-7.688,10.361-12.215,18.079-10.112c0.014,0.007,0.014,0.007,0.023,0.007c0.248,0.071,0.456,0.245,0.584,0.471
		C29.481,66.334,29.519,66.606,29.443,66.863z"/>
	<path fill="#C52E25" d="M29.274,67.44L22.77,89.67c-0.154,0.523-0.693,0.821-1.212,0.682c-6.722-1.835-13.583,1.944-15.615,8.612
		c-0.058,0.187-0.166,0.343-0.31,0.457l6.344-21.688C14.143,70.318,21.789,65.831,29.274,67.44z"/>
</g>
<path id="rocket-outer-flame" fill="#FD6D60" d="M60.764,127.172c-2.758-0.036-5.219,5.447-6.516,13.506
	c-0.839-1.498-1.779-2.426-2.785-2.6c-1.013,0.146-1.975,1.051-2.854,2.526c-1.089-8.087-3.405-13.634-6.163-13.671
	c-3.947-0.049-7.3,11.225-7.481,25.18c-0.181,13.957,6.827,25.367,6.827,25.367s1.516-2.347,3.18-6.197
	c1.437,8.406,4.8,14.873,5.847,16.735c1.091-1.835,4.618-8.211,6.272-16.579c1.565,3.893,3.019,6.278,3.019,6.278
	s7.299-11.224,7.479-25.183C67.768,138.58,64.713,127.223,60.764,127.172z"/>
<path id="rocket-inner-flame" fill="#FD8C7F" d="M60.934,113.91c-2.756-0.035-5.217,5.449-6.514,13.504
	c-0.841-1.495-1.78-2.426-2.786-2.598c-1.012,0.146-1.975,1.052-2.854,2.525c-1.09-8.086-3.407-13.634-6.163-13.67
	c-3.949-0.049-7.301,11.224-7.481,25.18c-0.181,13.957,6.827,25.363,6.827,25.363s1.514-2.344,3.18-6.195
	c1.436,8.409,4.798,14.875,5.845,16.738c1.092-1.834,4.62-8.211,6.274-16.581c1.564,3.893,3.02,6.276,3.02,6.276
	s7.297-11.219,7.479-25.18C67.939,125.318,64.884,113.961,60.934,113.91z"/>
<path id="rocket-body" fill="#B5C5C6" d="M70.307,33.845C61.635,15.691,52.192,4.029,51.764,3.523
	C51.75,3.506,51.75,3.49,51.75,3.49s0,0.016-0.012,0.032c-0.439,0.492-10.123,11.829-19.185,29.696
	C24.58,48.972,17.077,69.812,16.828,92.759l-0.564,51.759l67.887,1.041l0.565-51.757C84.965,70.868,77.934,49.841,70.307,33.845z"/>
<path id="rocket-shadow" fill="#D6D6D6" d="M70.307,33.845C61.635,15.691,52.192,4.029,51.764,3.523
	c0.268,0.69,5.1,13.345,9.248,32.854c3.312,15.554,6.178,35.481,5.942,57.151l-0.565,51.758l-32.364-0.498l0.564-51.759
	c0.236-21.669,3.551-41.503,7.186-56.961c4.571-19.361,9.68-31.865,9.963-32.545c-0.439,0.492-10.123,11.829-19.185,29.696
	c-7.974,15.754-15.477,36.592-15.726,59.54l-0.564,51.759l67.887,1.041l0.565-51.756C84.965,70.868,77.934,49.841,70.307,33.845z"/>
<path fill="#727272" d="M78.291,141.583c-0.043,3.907-2.9,7.035-6.38,6.987l-44.779-0.651c-3.477-0.053-6.261-3.262-6.218-7.17l0,0
	c0.047-3.91,2.904-7.042,6.383-6.991l44.777,0.651C75.553,134.462,78.338,137.673,78.291,141.583L78.291,141.583z"/>
<g>
	<path fill="#C52E25" d="M28.584,159.305c-0.335,0.366-0.72,0.639-1.158,0.779c-0.266,0.079-0.533,0.121-0.819,0.118
		c-3.176-0.041-7.346-5.397-8.306-8.352l-5.048-15.458c-1.042-3.209,0.713-6.672,3.936-7.713c0.66-0.215,1.322-0.313,1.979-0.303
		c0.51,0.006,1.02,0.074,1.506,0.219c1.938,0.513,3.566,1.959,4.229,4.006l5.048,15.459
		C30.848,150.835,30.705,157.004,28.584,159.305z"/>
	<path fill="#D53D33" d="M28.584,159.305c-0.332,0.196-0.685,0.307-1.045,0.346c-0.086,0.01-0.16,0.01-0.245,0.01
		c-3.282-0.043-6.53-6.779-6.827-10.064l-1.489-16.189c-0.169-1.85,0.501-3.571,1.696-4.811c1.938,0.513,3.566,1.959,4.229,4.006
		l5.048,15.459C30.848,150.835,30.705,157.004,28.584,159.305z"/>
</g>
<g>
	<path fill="#C52E25" d="M72.73,159.629c0.326,0.376,0.703,0.658,1.137,0.811c0.264,0.086,0.529,0.135,0.816,0.138
		c3.176,0.042,7.482-5.204,8.52-8.132l5.446-15.322c1.123-3.182-0.542-6.689-3.733-7.813c-0.656-0.232-1.313-0.348-1.974-0.355
		c-0.507-0.006-1.019,0.05-1.51,0.182c-1.949,0.463-3.615,1.866-4.331,3.895l-5.445,15.322
		C70.685,151.104,70.67,157.275,72.73,159.629z"/>
	<path fill="#D53D33" d="M72.73,159.629c0.326,0.206,0.676,0.326,1.038,0.373c0.083,0.014,0.157,0.014,0.242,0.014
		c3.282,0.043,6.706-6.605,7.087-9.881l1.906-16.146c0.217-1.844-0.408-3.584-1.571-4.853c-1.949,0.463-3.615,1.866-4.331,3.895
		l-5.445,15.322C70.685,151.104,70.67,157.275,72.73,159.629z"/>
</g>
<g>
	<path fill="#C52E25" d="M56.438,150.391v0.117c-0.041,3.084-2.428,9.486-5.438,9.508c-0.121-0.002-0.237-0.004-0.354-0.027
		c-2.876-0.463-5.205-6.586-5.227-9.515l-0.117-14.622v-0.107c0.04-2.986,2.456-5.412,5.467-5.443
		c0.083,0.001,0.177,0.002,0.26,0.016c2.916,0.109,5.27,2.489,5.291,5.453L56.438,150.391z"/>
	<path fill="#D53D33" d="M56.438,150.391v0.117c-0.041,3.084-2.428,9.486-5.438,9.508c-0.121-0.002-0.237-0.004-0.354-0.027
		l0.384-29.672c2.916,0.109,5.27,2.489,5.291,5.453L56.438,150.391z"/>
</g>
<g>
	<path fill="#C52E25" d="M50.342,125.691c-17.434-0.226-31.422-14.591-31.197-32.019c0.226-17.424,14.582-31.432,32.015-31.206
		c17.438,0.224,31.426,14.6,31.202,32.023C82.137,111.92,67.777,125.914,50.342,125.691z M51.033,72.194
		c-12.065-0.158-22.011,9.539-22.166,21.605c-0.157,12.065,9.533,22.013,21.601,22.169c12.071,0.156,22.014-9.537,22.17-21.605
		C72.796,82.298,63.107,72.35,51.033,72.194z"/>
	<path fill="#D5E5E6" d="M79.412,94.453c-0.205,15.826-13.201,28.485-29.03,28.282c-15.833-0.206-28.493-13.2-28.292-29.024
		c0.208-15.837,13.201-28.491,29.033-28.29C66.952,65.627,79.619,78.617,79.412,94.453z"/>
</g>
<g>
	<path fill="#C52E25" d="M50.637,59.027c-4.935-0.064-8.894-4.13-8.831-9.063c0.064-4.932,4.127-8.897,9.062-8.833
		c4.936,0.064,8.895,4.133,8.833,9.064C59.637,55.129,55.572,59.09,50.637,59.027z M50.833,43.885
		c-3.415-0.044-6.23,2.7-6.274,6.115c-0.044,3.415,2.698,6.231,6.114,6.275c3.416,0.044,6.231-2.699,6.275-6.115
		S54.25,43.929,50.833,43.885z"/>
	<path fill="#D5E5E6" d="M57.914,50.173c-0.052,3.954-3.299,7.117-7.253,7.066c-3.956-0.051-7.119-3.298-7.069-7.252
		c0.052-3.957,3.298-7.119,7.254-7.068C54.801,42.971,57.966,46.216,57.914,50.173z"/>
</g>
<path fill="#D53D33" d="M70.307,33.845c-2.872,1.127-5.992,1.984-9.295,2.532c-3.051,0.535-6.254,0.781-9.561,0.731
	c-3.347-0.052-6.598-0.414-9.676-1.041c-3.288-0.662-6.389-1.62-9.222-2.849C41.615,15.352,51.299,4.015,51.738,3.522
	C51.75,3.506,51.75,3.49,51.75,3.49s0,0.016,0.014,0.033C52.192,4.029,61.635,15.691,70.307,33.845z"/>
</svg>
