<?xml version="1.0" encoding="utf-8"?>
<!-- Generator: Adobe Illustrator 16.0.0, SVG Export Plug-In . SVG Version: 6.00 Build 0)  -->
<!DOCTYPE svg PUBLIC "-//W3C//DTD SVG 1.1//EN" "http://www.w3.org/Graphics/SVG/1.1/DTD/svg11.dtd">
<svg version="1.1" id="Слой_1" xmlns="http://www.w3.org/2000/svg" xmlns:xlink="http://www.w3.org/1999/xlink" x="0px" y="0px"
	 width="240px" height="115px" viewBox="0 0 240 115" enable-background="new 0 0 240 115" xml:space="preserve">
<path id="rocket-outer-flame" fill="#FD6D60" d="M199.494,40.854c15.099,0.109,27.268,8.148,27.268,8.148s-2.563,1.646-6.768,3.407
	c7.74,1.525,13.906,4.583,16.78,6.187c0.498,0.284,0.884,0.505,1.182,0.692c-2.003,1.174-8.976,4.956-18.056,6.615
	c4.177,1.836,6.715,3.501,6.715,3.501s-12.282,7.879-27.382,7.773c-1.75-0.013-3.478-0.063-5.134-0.186
	c-0.245-0.003-0.484-0.02-0.728-0.049c-0.892-0.051-1.765-0.123-2.614-0.215c-1.709-0.179-3.34-0.394-4.876-0.659
	c-3.228-0.55-6.067-1.291-8.314-2.157c-1.679-0.661-3.036-1.383-3.987-2.16c-0.027-0.029-0.053-0.045-0.08-0.074
	c-1.004-0.839-1.537-1.732-1.53-2.663c0.007-0.928,0.566-1.813,1.568-2.624c0.028-0.029,0.054-0.058,0.081-0.068
	c0.978-0.783,2.354-1.499,4.059-2.108c2.244-0.847,5.079-1.548,8.304-2.038c0.245-0.054,0.487-0.08,0.729-0.119
	c-0.25-0.153-0.495-0.31-0.724-0.479c-1.181-0.839-1.886-1.733-2.028-2.677c0.041-0.237,0.11-0.458,0.218-0.682
	c0.318-0.689,0.941-1.353,1.849-1.971c0.232-0.163,0.477-0.312,0.732-0.463c-0.243-0.044-0.486-0.075-0.727-0.131
	c-4.59-0.782-8.369-1.934-10.815-3.313c-0.565-0.323-1.074-0.66-1.486-1.009c-0.028-0.016-0.055-0.028-0.085-0.067
	c-0.99-0.83-1.534-1.721-1.528-2.652c0.008-0.929,0.551-1.813,1.567-2.627c0.028-0.025,0.056-0.039,0.082-0.065
	c0.652-0.523,1.491-1.018,2.49-1.465c2.449-1.122,5.854-2.055,9.871-2.681c1.54-0.238,3.174-0.434,4.889-0.59
	c0.701-0.064,1.417-0.114,2.141-0.151c0.34-0.023,0.689-0.047,1.026-0.061C195.91,40.882,197.676,40.84,199.494,40.854z"/>
<path id="rocket-inner-flame" fill="#FD8C7F" d="M157.769,48.513c-0.023,3.072,5.925,5.771,14.638,7.166
	c-1.613,0.947-2.607,1.998-2.789,3.121c0.165,1.123,1.146,2.189,2.746,3.156c-8.73,1.27-14.719,3.887-14.741,6.954
	c-0.031,4.396,12.18,8.058,27.271,8.163c15.094,0.111,27.382-7.772,27.382-7.772s-2.538-1.664-6.712-3.498
	c9.081-1.655,16.05-5.44,18.059-6.617c-1.989-1.204-8.906-5.086-17.965-6.877c4.2-1.769,6.768-3.402,6.768-3.402
	s-12.177-8.052-27.271-8.159C170.062,40.638,157.8,44.116,157.769,48.513z"/>
<g>
	<path fill="#B5C5C6" d="M115.735,31.979c29.799-2.887,39.499-30.118,39.499-30.118l35.142,30.65
		C190.376,32.511,85.938,34.868,115.735,31.979z"/>
	<path fill="#A5B5B6" d="M117.584,33.645c29.799-2.886,39.499-30.115,39.499-30.115l35.144,30.646
		C192.227,34.176,87.783,36.534,117.584,33.645z"/>
</g>
<g>
	<path fill="#B5C5C6" d="M162.164,83.577c6.065,0.179,11.729,0.373,16.334,0.53c0.211,0.002,0.4,0.002,0.597,0.019
		c3.661,0.124,6.619,0.229,8.521,0.296c1.305,0.053,2.123,0.072,2.329,0.09c0.044-0.001,0.06-0.003,0.06-0.003l-4.037,3.415
		l-0.881,0.756l-30.652,25.974c0,0-8.662-25.436-35.942-30.228c-1.015-0.183-2.054-0.33-3.118-0.449
		c-9.254-1.034-5.546-1.375,3.976-1.348C129.801,82.648,147.234,83.121,162.164,83.577z"/>
	<path fill="#859596" d="M117.234,82.333c29.758,3.313,39.066,30.676,39.066,30.676l35.578-30.142
		C191.879,82.867,87.481,79.018,117.234,82.333z"/>
</g>
<path id="rocket-body" fill="#B5C5C6" d="M62.709,29.894l119.382,0.855l-0.384,54.131L62.322,84.027
	c-11.286-0.08-21.936-2.475-31.353-5.819C10.501,70.914,2.183,56.455,2.183,56.455s6.3-13.469,29.234-21.231
	C40.844,32.029,51.476,29.814,62.709,29.894z"/>
<path fill="#859596" d="M185.324,30.165c3.505,0.027,6.327,2.89,6.305,6.398l-0.325,45.146c-0.026,3.506-2.888,6.332-6.394,6.307
	l0,0c-3.511-0.024-6.334-2.891-6.309-6.397l0.323-45.145C178.951,32.962,181.813,30.142,185.324,30.165L185.324,30.165z"/>
<g>
	<path fill="#C52E25" d="M189.041,78.617c2.021,0.083,4.083,0.556,5.154,1.525c0.31,0.285,0.541,0.606,0.656,0.978
		c0.008,0.039,0.026,0.088,0.026,0.129c0.06,0.174,0.077,0.35,0.075,0.536c0,0.007,0,0.007-0.001,0.018
		c-0.019,2.674-4.499,6.214-6.975,7.033l-3.336,1.111l-0.067,0.02l-9.586,3.19c-2.692,0.898-5.619-0.565-6.515-3.276
		c-0.182-0.554-0.263-1.109-0.26-1.665c0.003-0.351,0.043-0.692,0.123-1.031c0.021-0.077,0.041-0.155,0.06-0.23
		c0.049-0.197,0.11-0.39,0.18-0.582c0.169-0.419,0.384-0.816,0.659-1.175c0.601-0.82,1.452-1.478,2.505-1.82l6.942-2.315
		l1.386-0.455l0.06-0.021l2.894-0.962l1.707-0.57C185.771,78.71,187.389,78.537,189.041,78.617z"/>
	<path fill="#D53D33" d="M194.192,80.148c0.166,0.276,0.264,0.575,0.297,0.878c0.009,0.07,0.008,0.132,0.008,0.204
		c-0.021,2.76-5.67,5.528-8.434,5.794l-13.614,1.332c-1.556,0.149-3.009-0.406-4.058-1.404c0.424-1.635,1.631-3.011,3.349-3.58
		l12.984-4.321C187.056,78.281,192.248,78.373,194.192,80.148z"/>
</g>
<g>
	<path fill="#C52E25" d="M194.343,38.985c0.313-0.272,0.55-0.595,0.68-0.959c0.071-0.223,0.107-0.445,0.11-0.687
		c0.018-2.674-4.415-6.272-6.885-7.131l-12.919-4.506c-2.683-0.93-5.629,0.487-6.557,3.18c-0.194,0.553-0.284,1.107-0.291,1.66
		c-0.002,0.429,0.051,0.861,0.163,1.271c0.397,1.638,1.586,3.034,3.299,3.627l12.919,4.506
		C187.182,40.75,192.372,40.733,194.343,38.985z"/>
	<path fill="#D53D33" d="M194.343,38.985c0.171-0.273,0.272-0.57,0.311-0.873c0.009-0.07,0.009-0.133,0.009-0.205
		c0.02-2.762-5.59-5.608-8.349-5.913l-13.593-1.53c-1.554-0.17-3.016,0.363-4.076,1.347c0.397,1.638,1.586,3.034,3.299,3.627
		l12.919,4.506C187.182,40.75,192.372,40.733,194.343,38.985z"/>
</g>
<g>
	<path fill="#C52E25" d="M191.552,54.363h0.09c2.332,0.017,7.189,1.793,7.218,4.074c0,0.088,0.001,0.178-0.018,0.267
		c-0.339,2.178-4.962,3.97-7.178,3.999l-11.071,0.153h-0.078c-2.262-0.017-4.105-1.837-4.145-4.117
		c0.001-0.062,0.002-0.133,0.012-0.194c0.069-2.209,1.86-4,4.105-4.028L191.552,54.363z"/>
	<path fill="#D53D33" d="M191.552,54.363h0.09c2.332,0.017,7.189,1.793,7.218,4.074c0,0.088,0.001,0.178-0.018,0.267l-22.46-0.159
		c0.069-2.209,1.86-4,4.105-4.028L191.552,54.363z"/>
</g>
<path fill="#D53D33" d="M31.417,35.224c2.472,6.318,3.846,13.594,3.791,21.334l-0.004,0.594c-0.133,7.674-1.651,14.859-4.235,21.056
	C10.501,70.914,2.183,56.455,2.183,56.455S8.483,42.986,31.417,35.224z"/>
<path id="rocket-shadow" fill="#D5E5E6" d="M2.559,56.848l232.25,1.748c0.473,0.284,0.84,0.505,1.122,0.692
	c-1.903,1.175-8.527,4.958-17.155,6.621c3.968,1.835,6.378,3.5,6.378,3.5s-11.671,7.882-26.016,7.782
	c-1.662-0.012-11.334-0.169-11.335-0.153c-0.026,3.814,0.53,8.865-2.729,10.035l-4.393,1.59l-26.446,25.99
	c0,0-7.327-26.632-34.987-30.206l-60.581-0.431c-10.96-0.078-18.553-2.466-27.697-5.809C11.094,70.918,5.209,59.132,2.559,56.848z"
	/>
<g>
	<path fill="#657576" d="M132.656,57.799c-0.086,11.437,9.171,20.799,20.586,20.882c11.437,0.08,20.801-9.148,20.882-20.586
		c0.08-11.435-9.152-20.8-20.586-20.881C142.122,37.134,132.738,46.365,132.656,57.799z M167.759,58.051
		c-0.055,7.912-6.548,14.306-14.476,14.25c-7.9-0.057-14.298-6.546-14.24-14.456c0.055-7.931,6.542-14.304,14.45-14.249
		C161.423,43.653,167.82,50.126,167.759,58.051z"/>
	<path fill="#D5E5E6" d="M153.524,39.939c9.944,0.069,17.942,8.192,17.871,18.136c-0.07,9.941-8.185,17.945-18.133,17.875
		c-9.939-0.069-17.934-8.194-17.866-18.134C135.469,47.874,143.577,39.868,153.524,39.939z"/>
</g>
<g>
	<path fill="#657576" d="M85.897,57.385c-0.08,11.442,9.168,20.8,20.584,20.879c11.433,0.085,20.797-9.142,20.876-20.583
		c0.081-11.432-9.146-20.8-20.58-20.881C95.362,36.724,85.98,45.954,85.897,57.385z M120.997,57.634
		c-0.056,7.917-6.542,14.312-14.466,14.257c-7.912-0.06-14.308-6.546-14.248-14.459c0.056-7.926,6.543-14.302,14.453-14.247
		C114.662,43.238,121.055,49.71,120.997,57.634z"/>
	<path fill="#D5E5E6" d="M106.762,39.522c9.949,0.068,17.941,8.19,17.873,18.141c-0.072,9.942-8.182,17.947-18.128,17.876
		c-9.949-0.075-17.944-8.192-17.871-18.136C88.709,47.46,96.817,39.45,106.762,39.522z"/>
</g>
<g>
	<path fill="#657576" d="M39.138,56.972c-0.081,11.44,9.163,20.797,20.585,20.882c11.434,0.078,20.792-9.148,20.877-20.585
		c0.08-11.435-9.144-20.801-20.581-20.881C48.6,36.308,39.22,45.539,39.138,56.972z M74.217,57.224
		c-0.057,7.913-6.542,14.308-14.449,14.25C51.859,71.417,45.46,64.931,45.52,57.02c0.053-7.928,6.543-14.306,14.454-14.248
		C67.879,42.826,74.273,49.298,74.217,57.224z"/>
	<path fill="#D5E5E6" d="M59.995,39.11c9.956,0.073,17.95,8.193,17.877,18.135c-0.068,9.942-8.179,17.957-18.13,17.878
		c-9.943-0.069-17.943-8.189-17.869-18.138C41.94,47.048,50.058,39.036,59.995,39.11z"/>
</g>
</svg>
