<?xml version="1.0" encoding="utf-8"?>
<!-- Generator: Adobe Illustrator 23.1.0, SVG Export Plug-In . SVG Version: 6.00 Build 0)  -->
<svg version="1.1" id="Слой_1" xmlns="http://www.w3.org/2000/svg" xmlns:xlink="http://www.w3.org/1999/xlink" x="0px" y="0px"
	 viewBox="0 0 240 115" style="enable-background:new 0 0 240 115;" xml:space="preserve">
<style type="text/css">
	.st0{fill:#FD6D60;}
	.st1{fill:#FD8C7F;}
	.st2{fill:#B5C5C6;}
	.st3{fill:#A5B5B6;}
	.st4{fill:#859596;}
	.st5{fill:#C52E25;}
	.st6{fill:#D53D33;}
	.st7{fill:#D5E5E6;}
	.st8{fill:#657576;}
</style>
<path id="rocket-outer-flame" class="st0" d="M199.5,40.9c15.1,0.1,27.3,8.1,27.3,8.1s-2.6,1.6-6.8,3.4c7.7,1.5,13.9,4.6,16.8,6.2
	c0.5,0.3,0.9,0.5,1.2,0.7c-2,1.2-9,5-18.1,6.6c4.2,1.8,6.7,3.5,6.7,3.5s-12.3,7.9-27.4,7.8c-1.8,0-3.5-0.1-5.1-0.2
	c-0.2,0-0.5,0-0.7-0.1c-0.9-0.1-1.8-0.1-2.6-0.2c-1.7-0.2-3.3-0.4-4.9-0.7c-3.2-0.6-6.1-1.3-8.3-2.2c-1.7-0.7-3-1.4-4-2.2
	c0,0-0.1,0-0.1-0.1c-1-0.8-1.5-1.7-1.5-2.7c0-0.9,0.6-1.8,1.6-2.6c0,0,0.1-0.1,0.1-0.1c1-0.8,2.4-1.5,4.1-2.1c2.2-0.8,5.1-1.5,8.3-2
	c0.2-0.1,0.5-0.1,0.7-0.1c-0.3-0.2-0.5-0.3-0.7-0.5c-1.2-0.8-1.9-1.7-2-2.7c0-0.2,0.1-0.5,0.2-0.7c0.3-0.7,0.9-1.4,1.8-2
	c0.2-0.2,0.5-0.3,0.7-0.5c-0.2,0-0.5-0.1-0.7-0.1c-4.6-0.8-8.4-1.9-10.8-3.3c-0.6-0.3-1.1-0.7-1.5-1c0,0-0.1,0-0.1-0.1
	c-1-0.8-1.5-1.7-1.5-2.7c0-0.9,0.6-1.8,1.6-2.6c0,0,0.1,0,0.1-0.1c0.7-0.5,1.5-1,2.5-1.5c2.4-1.1,5.9-2.1,9.9-2.7
	c1.5-0.2,3.2-0.4,4.9-0.6c0.7-0.1,1.4-0.1,2.1-0.2c0.3,0,0.7,0,1-0.1C195.9,40.9,197.7,40.8,199.5,40.9z"/>
<path id="rocket-inner-flame" class="st1" d="M157.8,48.5c0,3.1,5.9,5.8,14.6,7.2c-1.6,0.9-2.6,2-2.8,3.1c0.2,1.1,1.1,2.2,2.7,3.2
	c-8.7,1.3-14.7,3.9-14.7,7c0,4.4,12.2,8.1,27.3,8.2c15.1,0.1,27.4-7.8,27.4-7.8s-2.5-1.7-6.7-3.5c9.1-1.7,16-5.4,18.1-6.6
	c-2-1.2-8.9-5.1-18-6.9c4.2-1.8,6.8-3.4,6.8-3.4s-12.2-8.1-27.3-8.2C170.1,40.6,157.8,44.1,157.8,48.5z"/>
<g>
	<path class="st2" d="M115.7,32c29.8-2.9,39.5-30.1,39.5-30.1l35.1,30.7C190.4,32.5,85.9,34.9,115.7,32z"/>
	<path class="st3" d="M117.6,33.6c29.8-2.9,39.5-30.1,39.5-30.1l35.1,30.6C192.2,34.2,87.8,36.5,117.6,33.6z"/>
</g>
<g>
	<path class="st2" d="M162.2,83.6c6.1,0.2,11.7,0.4,16.3,0.5c0.2,0,0.4,0,0.6,0c3.7,0.1,6.6,0.2,8.5,0.3c1.3,0.1,2.1,0.1,2.3,0.1
		c0,0,0.1,0,0.1,0l-4,3.4l-0.9,0.8l-30.7,26c0,0-8.7-25.4-35.9-30.2c-1-0.2-2.1-0.3-3.1-0.4c-9.3-1-5.5-1.4,4-1.3
		C129.8,82.6,147.2,83.1,162.2,83.6z"/>
	<path class="st4" d="M117.2,82.3c29.8,3.3,39.1,30.7,39.1,30.7l35.6-30.1C191.9,82.9,87.5,79,117.2,82.3z"/>
</g>
<path id="rocket-body" class="st2" d="M62.7,29.9c-11.2-0.1-21.9,2.1-31.3,5.3C8.5,43,2.2,56.5,2.2,56.5S10.5,70.9,31,78.2
	c9.4,3.3,20.1,5.7,31.4,5.8l119.4,0.9l0.4-54.1L62.7,29.9z M60,73.5c-10.2,0-18.4-8.2-18.4-18.4S49.9,36.7,60,36.7
	s18.4,8.2,18.4,18.4S70.2,73.5,60,73.5z M153.4,73.5c-10.2,0-18.4-8.2-18.4-18.4s8.2-18.4,18.4-18.4s18.4,8.2,18.4,18.4
	S163.6,73.5,153.4,73.5z"/>
<path class="st4" d="M185.3,30.2c3.5,0,6.3,2.9,6.3,6.4l-0.3,45.1c0,3.5-2.9,6.3-6.4,6.3l0,0c-3.5,0-6.3-2.9-6.3-6.4l0.3-45.1
	C179,33,181.8,30.1,185.3,30.2L185.3,30.2z"/>
<g>
	<path class="st5" d="M189,78.6c2,0.1,4.1,0.6,5.2,1.5c0.3,0.3,0.5,0.6,0.7,1c0,0,0,0.1,0,0.1c0.1,0.2,0.1,0.4,0.1,0.5c0,0,0,0,0,0
		c0,2.7-4.5,6.2-7,7l-3.3,1.1l-0.1,0l-9.6,3.2c-2.7,0.9-5.6-0.6-6.5-3.3c-0.2-0.6-0.3-1.1-0.3-1.7c0-0.4,0-0.7,0.1-1
		c0-0.1,0-0.2,0.1-0.2c0-0.2,0.1-0.4,0.2-0.6c0.2-0.4,0.4-0.8,0.7-1.2c0.6-0.8,1.5-1.5,2.5-1.8l6.9-2.3l1.4-0.5l0.1,0l2.9-1l1.7-0.6
		C185.8,78.7,187.4,78.5,189,78.6z"/>
	<path class="st6" d="M194.2,80.1c0.2,0.3,0.3,0.6,0.3,0.9c0,0.1,0,0.1,0,0.2c0,2.8-5.7,5.5-8.4,5.8l-13.6,1.3
		c-1.6,0.1-3-0.4-4.1-1.4c0.4-1.6,1.6-3,3.4-3.6l13-4.3C187.1,78.3,192.2,78.4,194.2,80.1z"/>
</g>
<g>
	<path class="st5" d="M194.3,39c0.3-0.3,0.6-0.6,0.7-1c0.1-0.2,0.1-0.4,0.1-0.7c0-2.7-4.4-6.3-6.9-7.1l-12.9-4.5
		c-2.7-0.9-5.6,0.5-6.6,3.2c-0.2,0.6-0.3,1.1-0.3,1.7c0,0.4,0.1,0.9,0.2,1.3c0.4,1.6,1.6,3,3.3,3.6l12.9,4.5
		C187.2,40.8,192.4,40.7,194.3,39z"/>
	<path class="st6" d="M194.3,39c0.2-0.3,0.3-0.6,0.3-0.9c0-0.1,0-0.1,0-0.2c0-2.8-5.6-5.6-8.3-5.9l-13.6-1.5c-1.6-0.2-3,0.4-4.1,1.3
		c0.4,1.6,1.6,3,3.3,3.6l12.9,4.5C187.2,40.8,192.4,40.7,194.3,39z"/>
</g>
<g>
	<path class="st5" d="M191.6,54.4L191.6,54.4c2.4,0,7.3,1.8,7.3,4.1c0,0.1,0,0.2,0,0.3c-0.3,2.2-5,4-7.2,4l-11.1,0.2h-0.1
		c-2.3,0-4.1-1.8-4.1-4.1c0-0.1,0-0.1,0-0.2c0.1-2.2,1.9-4,4.1-4L191.6,54.4z"/>
	<path class="st6" d="M191.6,54.4L191.6,54.4c2.4,0,7.3,1.8,7.3,4.1c0,0.1,0,0.2,0,0.3l-22.5-0.2c0.1-2.2,1.9-4,4.1-4L191.6,54.4z"
		/>
</g>
<path class="st6" d="M31.4,35.2c2.5,6.3,3.8,13.6,3.8,21.3l0,0.6C35.1,64.8,33.6,72,31,78.2C10.5,70.9,2.2,56.5,2.2,56.5
	S8.5,43,31.4,35.2z"/>
<path id="rocket-shadow" class="st7" d="M235.9,59.3c-0.3-0.2-0.6-0.4-1.1-0.7l-63.3-0.5c-1.4,8.7-9,15.4-18.2,15.4
	c-9.2,0-16.9-6.8-18.2-15.7l-56.9-0.4c-1.1,9.1-8.9,16.1-18.3,16.1c-9.5,0-17.3-7.2-18.3-16.4L2.6,56.8c2.6,2.3,8.5,14.1,28.4,21.4
	c9.1,3.3,16.7,5.7,27.7,5.8l60.6,0.4c27.7,3.6,35,30.2,35,30.2l26.4-26l4.4-1.6c3.3-1.2,2.7-6.2,2.7-10c0,0,9.7,0.1,11.3,0.2
	c14.3,0.1,26-7.8,26-7.8s-2.4-1.7-6.4-3.5C227.4,64.2,234,60.5,235.9,59.3z"/>
<g>
	<path class="st8" d="M132.7,55.8c-0.1,11.4,9.2,20.8,20.6,20.9c11.4,0.1,20.8-9.1,20.9-20.6c0.1-11.4-9.2-20.8-20.6-20.9
		C142.1,35.1,132.7,44.4,132.7,55.8z M167.8,56.1c-0.1,7.9-6.5,14.3-14.5,14.2c-7.9-0.1-14.3-6.5-14.2-14.5
		c0.1-7.9,6.5-14.3,14.4-14.2C161.4,41.7,167.8,48.1,167.8,56.1z"/>
	<path id="right-window_1_" class="st7" d="M153.5,37.9c9.9,0.1,17.9,8.2,17.9,18.1c-0.1,9.9-8.2,17.9-18.1,17.9
		c-9.9-0.1-17.9-8.2-17.9-18.1C135.5,45.9,143.6,37.9,153.5,37.9z"/>
</g>
<g>
	<path class="st8" d="M85.9,55.4c-0.1,11.4,9.2,20.8,20.6,20.9c11.4,0.1,20.8-9.1,20.9-20.6c0.1-11.4-9.1-20.8-20.6-20.9
		C95.4,34.7,86,44,85.9,55.4z M121,55.6c-0.1,7.9-6.5,14.3-14.5,14.3c-7.9-0.1-14.3-6.5-14.2-14.5c0.1-7.9,6.5-14.3,14.5-14.2
		C114.7,41.2,121.1,47.7,121,55.6z"/>
	<path class="st7" d="M106.8,37.5c9.9,0.1,17.9,8.2,17.9,18.1c-0.1,9.9-8.2,17.9-18.1,17.9c-9.9-0.1-17.9-8.2-17.9-18.1
		C88.7,45.5,96.8,37.5,106.8,37.5z"/>
</g>
<g>
	<path class="st8" d="M39.1,55c-0.1,11.4,9.2,20.8,20.6,20.9c11.4,0.1,20.8-9.1,20.9-20.6c0.1-11.4-9.1-20.8-20.6-20.9
		C48.6,34.3,39.2,43.5,39.1,55z M78.1,55.2c-0.1,7.9-8,17.9-18.4,17.9C49.5,73.1,41.5,62.9,41.6,55c0.1-7.9,5-17.5,18.4-17.9
		C70.3,37.2,78.2,47.3,78.1,55.2z"/>
	<path id="left-window" class="st7" d="M60,37.1c10,0.1,18,8.2,17.9,18.1c-0.1,9.9-8.2,18-18.1,17.9c-9.9-0.1-17.9-8.2-17.9-18.1
		C41.9,45,50.1,37,60,37.1z"/>
</g>
</svg>
