<?xml version="1.0" encoding="utf-8"?>
<!-- Generator: Adobe Illustrator 16.0.0, SVG Export Plug-In . SVG Version: 6.00 Build 0)  -->
<!DOCTYPE svg PUBLIC "-//W3C//DTD SVG 1.1//EN" "http://www.w3.org/Graphics/SVG/1.1/DTD/svg11.dtd">
<svg version="1.1" id="Слой_1" xmlns="http://www.w3.org/2000/svg" xmlns:xlink="http://www.w3.org/1999/xlink" x="0px" y="0px"
	 width="35px" height="35px" viewBox="0 0 35 35" enable-background="new 0 0 35 35" xml:space="preserve">
<linearGradient id="star-fill" gradientUnits="userSpaceOnUse" x1="17.4751" y1="33.1992" x2="17.4751" y2="1.0083">
	<stop  offset="0" style="stop-color:#FFCC00"/>
	<stop  offset="1" style="stop-color:#FF9700"/>
</linearGradient>
<path fill="none" d="M26.191,21.397c0,0,4.521,9.84,2.063,11.568c-2.466,1.72-10.78-6.614-10.78-6.614
	s-8.313,8.334-10.778,6.614c-2.459-1.729,2.063-11.568,2.063-11.568s-9.663-5.394-8.723-8.188c0,0,0,0,0.007-0.008
	c0.953-2.779,12.045-1.676,12.045-1.676s2.34-10.519,5.386-10.519c3.047,0,5.386,10.519,5.386,10.519s9.469-0.938,11.666,1.109
	c0.186,0.164,0.313,0.358,0.388,0.574C35.853,16.003,26.191,21.397,26.191,21.397z"/>
</svg>
